<svg xmlns="http://www.w3.org/2000/svg" viewBox="0 0 1200 600" role="img" aria-labelledby="title desc">
  <title>City guide illustration</title>
  <desc>Warm sun over a lively city skyline and water.</desc>
  <rect width="1200" height="600" fill="#d9f0eb"/>
  <circle cx="935" cy="126" r="78" fill="#f7c978"/>
  <path d="M0 380h1200v220H0z" fill="#3f8790"/>
  <path d="M0 440c170-50 310-42 470 6 170 50 322 44 456-10 105-42 190-40 274-2v166H0Z" fill="#176765" opacity=".72"/>
  <g fill="#1d2930">
    <path d="M80 384V218h86v166Z"/><path d="M190 384V156h124v228Z"/><path d="M337 384V246h70v138Z"/>
    <path d="M430 384V184h112v200Z"/><path d="M574 384V126h82v258Z"/><path d="M692 384V230h133v154Z"/>
    <path d="M854 384V178h98v206Z"/><path d="M1004 384V238h66v146Z"/><path d="M1090 384V190h72v194Z"/>
  </g>
  <g fill="#f7c978"><rect x="215" y="190" width="18" height="24"/><rect x="258" y="190" width="18" height="24"/><rect x="456" y="220" width="18" height="24"/><rect x="498" y="220" width="18" height="24"/><rect x="596" y="164" width="18" height="24"/><rect x="638" y="164" width="18" height="24"/><rect x="882" y="210" width="18" height="24"/><rect x="924" y="210" width="18" height="24"/></g>
</svg>
